<?xml version="1.0" standalone="no"?>
<!DOCTYPE svg PUBLIC "-//W3C//DTD SVG 20010904//EN"
 "http://www.w3.org/TR/2001/REC-SVG-20010904/DTD/svg10.dtd">
<svg version="1.0" xmlns="http://www.w3.org/2000/svg"
 width="500.000000pt" height="500.000000pt" viewBox="0 0 500.000000 500.000000"
 preserveAspectRatio="xMidYMid meet">

<g transform="translate(0.000000,500.000000) scale(0.100000,-0.100000)"
fill="#000000" stroke="none">
<path d="M1498 3778 l-3 -243 -332 -3 -333 -2 0 -1030 0 -1030 275 0 275 0 -2
173 -3 172 -82 3 -83 3 0 684 0 685 910 0 910 0 0 43 c0 109 -67 214 -170 268
-45 24 -45 24 -505 29 l-460 5 -3 78 -3 77 404 0 c367 0 411 -2 479 -19 101
-26 170 -62 234 -123 102 -96 144 -192 144 -329 0 -266 -142 -439 -403 -493
-62 -13 -149 -16 -467 -16 l-390 0 0 180 0 180 -195 0 -195 0 0 -1051 0 -1051
643 5 c724 6 755 9 963 86 147 55 325 190 376 285 10 18 7 18 -53 12 -35 -4
-174 -10 -308 -12 -182 -3 -264 -8 -325 -21 -70 -16 -137 -18 -491 -18 l-410
0 0 535 0 535 350 3 c204 2 390 -2 445 -8 275 -31 459 -170 520 -392 l13 -48
56 0 c131 1 292 44 307 84 3 8 -5 38 -17 68 -94 220 -264 379 -473 443 l-69
21 49 18 c231 87 413 287 460 507 l17 77 46 -21 c152 -67 288 -212 354 -377
91 -231 46 -495 -117 -692 -80 -96 -177 -163 -306 -209 l-65 -24 -725 -5 -725
-5 -3 -172 -2 -172 572 -3 c621 -3 918 5 1015 27 322 75 600 328 708 646 107
314 56 713 -123 964 -149 208 -373 357 -610 406 l-62 13 -46 80 c-130 224
-365 365 -677 406 -46 6 -328 10 -683 10 l-604 0 -2 -242z m-60 -330 c15 -15
16 -50 1 -65 -9 -9 -8 -16 5 -28 20 -21 20 -44 -1 -67 -13 -14 -31 -18 -95
-18 l-78 0 0 95 0 95 78 0 c47 0 83 -5 90 -12z m312 -8 c0 -17 -7 -20 -50 -20
-38 0 -50 -4 -50 -15 0 -11 12 -15 45 -15 38 0 45 -3 45 -20 0 -17 -7 -20 -45
-20 -33 0 -45 -4 -45 -15 0 -11 12 -15 50 -15 47 0 50 -2 50 -25 0 -25 -1 -25
-80 -25 l-80 0 0 95 0 95 80 0 c73 0 80 -2 80 -20z m289 -68 c17 -48 31 -91
31 -95 0 -14 -58 -7 -64 8 -7 20 -62 19 -74 -1 -6 -10 -19 -14 -38 -12 l-30 3
34 93 34 92 38 0 37 0 32 -88z m321 63 c0 -21 -5 -25 -30 -25 l-30 0 0 -70 0
-70 -30 0 -30 0 0 70 0 70 -30 0 c-25 0 -30 4 -30 25 0 25 1 25 90 25 89 0 90
0 90 -25z m767 -1729 c35 -34 34 -106 -2 -141 -19 -20 -34 -25 -75 -25 -68 0
-100 30 -100 92 0 24 7 53 15 66 31 44 121 48 162 8z m-653 13 c30 -14 50 -67
41 -109 -11 -49 -48 -70 -121 -70 l-64 0 0 95 0 95 60 0 c32 0 70 -5 84 -11z
m336 -4 c17 -21 16 -64 -3 -82 -14 -15 -14 -20 4 -55 l19 -38 -35 0 c-30 0
-37 4 -49 35 -8 19 -20 35 -25 35 -6 0 -11 -16 -11 -35 0 -33 -2 -35 -35 -35
l-35 0 0 95 0 95 79 0 c58 0 82 -4 91 -15z m622 -2 c44 -39 7 -113 -57 -113
-32 0 -35 -2 -35 -30 0 -27 -3 -30 -30 -30 l-30 0 0 95 0 95 67 0 c48 0 72 -5
85 -17z"/>
<path d="M1340 3405 c0 -9 9 -15 25 -15 16 0 25 6 25 15 0 9 -9 15 -25 15 -16
0 -25 -6 -25 -15z"/>
<path d="M1340 3330 c0 -21 24 -27 49 -11 19 12 4 31 -25 31 -17 0 -24 -5 -24
-20z"/>
<path d="M1956 3377 c-9 -33 -8 -37 13 -37 14 0 17 6 13 25 -6 34 -18 40 -26
12z"/>
<path d="M3022 1678 c-17 -17 -15 -64 4 -82 31 -32 64 -11 64 39 0 34 -15 55
-40 55 -9 0 -21 -5 -28 -12z"/>
<path d="M2400 1639 c0 -47 2 -50 23 -47 18 2 23 10 25 42 3 38 -8 56 -35 56
-9 0 -13 -17 -13 -51z"/>
<path d="M2710 1669 c0 -15 5 -20 22 -17 34 5 37 38 4 38 -20 0 -26 -5 -26
-21z"/>
<path d="M3340 1670 c0 -16 5 -21 23 -18 12 2 22 10 22 18 0 8 -10 16 -22 18
-18 3 -23 -2 -23 -18z"/>
</g>
</svg>
