<?xml version="1.0" standalone="no"?>
<!DOCTYPE svg PUBLIC "-//W3C//DTD SVG 20010904//EN"
 "http://www.w3.org/TR/2001/REC-SVG-20010904/DTD/svg10.dtd">
<svg version="1.0" xmlns="http://www.w3.org/2000/svg"
 width="500.000000pt" height="500.000000pt" viewBox="0 0 500.000000 500.000000"
 preserveAspectRatio="xMidYMid meet">

<g transform="translate(0.000000,500.000000) scale(0.100000,-0.100000)"
fill="#000000" stroke="none">
<path d="M640 3101 l0 -121 -155 0 -155 0 0 -480 0 -480 125 0 125 0 0 80 0
80 -35 0 -35 0 0 320 0 320 426 0 426 0 -7 38 c-9 48 -29 78 -68 102 -29 18
-52 20 -244 20 l-213 0 0 41 0 41 208 -4 c203 -3 208 -4 259 -31 90 -46 130
-130 113 -235 -13 -76 -50 -125 -119 -159 -55 -27 -61 -28 -258 -31 l-203 -3
0 80 0 81 -95 0 -95 0 0 -486 0 -485 333 3 c330 4 332 4 400 30 77 29 137 68
173 111 14 16 24 30 22 31 -2 1 -77 -2 -168 -6 -376 -18 -570 -21 -571 -6 -5
78 -6 315 -1 397 l5 103 201 -5 c222 -5 263 -13 329 -68 38 -31 77 -94 77
-124 0 -12 13 -15 60 -15 78 0 124 22 114 53 -24 82 -122 184 -206 215 l-51
19 31 11 c89 31 168 113 198 205 9 29 18 54 20 56 8 9 96 -53 128 -91 146
-170 71 -442 -139 -507 -62 -19 -91 -21 -391 -21 l-324 0 0 -80 0 -80 353 0
c324 0 359 2 410 19 125 43 220 124 280 239 74 143 76 292 5 439 -55 114 -196
229 -305 249 -26 5 -40 15 -52 37 -27 51 -97 122 -149 150 -96 52 -142 59
-474 64 l-308 6 0 -122z"/>
<path d="M2277 2773 c-4 -3 -7 -96 -7 -205 l0 -198 95 0 c145 0 195 30 195
118 0 46 -33 92 -66 92 -15 0 -14 4 6 24 28 31 32 92 7 129 -10 15 -33 30 -54
36 -42 12 -166 15 -176 4z m151 -91 c6 -9 12 -19 12 -23 0 -15 -32 -39 -51
-39 -16 0 -19 7 -19 44 0 41 2 44 23 39 12 -3 28 -13 35 -21z m6 -152 c20 -7
26 -17 26 -39 0 -34 -22 -51 -64 -51 -24 0 -26 3 -26 50 0 55 10 61 64 40z"/>
<path d="M3430 2575 l0 -205 83 0 c92 0 144 19 189 66 78 84 63 238 -31 301
-46 31 -94 43 -173 43 l-68 0 0 -205z m176 97 c32 -25 44 -55 44 -105 0 -29
-7 -53 -20 -70 -21 -27 -83 -53 -100 -42 -6 4 -10 54 -10 121 l0 114 33 0 c17
0 42 -8 53 -18z"/>
<path d="M3250 2670 c0 -38 -4 -50 -15 -50 -10 0 -15 -10 -15 -30 0 -19 5 -30
14 -30 10 0 15 -19 18 -75 4 -95 25 -121 93 -119 25 0 48 4 51 7 12 12 -17 75
-34 73 -14 -1 -18 9 -20 57 -3 55 -2 57 23 57 21 0 25 5 25 30 0 25 -4 30 -25
30 -23 0 -25 3 -25 50 l0 50 -45 0 -45 0 0 -50z"/>
<path d="M2661 2613 c-95 -50 -101 -171 -13 -229 51 -34 169 -17 193 27 7 15
4 21 -18 32 -24 13 -31 13 -60 -1 -26 -12 -38 -13 -58 -4 -14 6 -25 18 -25 27
0 12 16 15 85 15 98 0 106 7 84 67 -27 71 -118 103 -188 66z m97 -55 c21 -21
13 -28 -33 -28 -43 0 -58 14 -38 33 11 11 58 8 71 -5z"/>
<path d="M2939 2607 c-67 -45 -77 -148 -18 -206 38 -39 87 -48 131 -27 20 11
34 13 36 6 2 -5 24 -10 48 -10 l44 0 0 125 0 125 -45 0 c-25 0 -45 -4 -45 -9
0 -6 -12 -3 -27 5 -40 20 -85 17 -124 -9z m139 -69 c17 -14 15 -63 -4 -82 -19
-19 -68 -21 -82 -3 -24 30 -23 56 3 82 26 26 52 27 83 3z"/>
<path d="M3906 2609 c-21 -17 -26 -18 -26 -5 0 12 -10 16 -40 16 l-40 0 0
-125 0 -125 40 0 40 0 0 68 c0 87 17 116 67 110 31 -4 36 -1 53 33 17 33 18
38 4 43 -31 12 -72 6 -98 -15z"/>
<path d="M4105 2614 c-46 -24 -64 -44 -75 -85 -22 -80 32 -151 126 -165 93
-14 185 68 170 150 -18 93 -134 146 -221 100z m103 -70 c25 -17 31 -71 10 -92
-17 -17 -73 -15 -87 2 -21 25 -9 79 19 93 32 16 31 16 58 -3z"/>
<path d="M4481 2614 c-17 -13 -26 -14 -29 -6 -2 7 -21 12 -43 12 l-39 0 0
-190 0 -190 40 0 40 0 0 75 c0 41 2 75 4 75 2 0 17 -7 32 -15 83 -43 174 24
174 128 0 40 -5 53 -33 83 -40 44 -106 57 -146 28z m77 -82 c6 -9 12 -25 12
-36 0 -52 -75 -76 -104 -34 -22 31 -20 45 9 74 27 27 59 26 83 -4z"/>
</g>
</svg>
