<?xml version="1.0" standalone="no"?>
<!DOCTYPE svg PUBLIC "-//W3C//DTD SVG 20010904//EN"
 "http://www.w3.org/TR/2001/REC-SVG-20010904/DTD/svg10.dtd">
<svg version="1.0" xmlns="http://www.w3.org/2000/svg"
 width="500.000000pt" height="500.000000pt" viewBox="0 0 500.000000 500.000000"
 preserveAspectRatio="xMidYMid meet">

<g transform="translate(0.000000,500.000000) scale(0.100000,-0.100000)"
fill="#000000" stroke="none">
<path d="M1490 3695 l0 -225 -315 0 -315 0 0 -970 0 -970 260 0 260 0 0 165 0
165 -80 0 -80 0 0 639 0 639 113 7 c61 4 445 5 852 3 l740 -3 -2 56 c-2 31 -9
72 -17 91 -22 52 -85 115 -150 148 l-58 30 -419 0 -419 0 0 76 0 76 383 -5
c252 -3 399 -9 432 -17 271 -67 412 -293 350 -559 -40 -166 -165 -285 -350
-331 -33 -8 -177 -14 -432 -17 l-383 -5 0 171 0 171 -185 0 -185 0 0 -980 0
-980 533 0 c562 0 709 7 847 41 104 26 231 83 315 144 57 40 165 149 165 166
0 3 -125 4 -277 2 -212 -4 -291 -9 -333 -21 -45 -12 -131 -16 -467 -19 l-413
-4 0 500 0 501 388 0 c430 0 460 -4 589 -65 129 -63 222 -172 254 -299 l12
-49 101 6 c104 5 184 26 225 56 l23 18 -25 62 c-77 191 -234 346 -405 401 -37
12 -74 24 -82 27 -9 3 4 12 34 24 218 87 375 259 423 467 10 39 21 72 25 72
19 0 107 -51 165 -94 150 -113 243 -305 243 -502 0 -111 -14 -172 -64 -279
-89 -190 -262 -321 -467 -354 -39 -7 -307 -11 -696 -11 l-633 0 0 -165 0 -165
603 0 c331 0 654 4 717 9 474 37 848 424 877 907 18 306 -117 613 -351 802
-122 98 -261 168 -387 194 -56 11 -57 12 -87 72 -97 194 -274 316 -552 382
-67 16 -143 18 -687 21 l-613 4 0 -226z"/>
</g>
</svg>
