<?xml version="1.0" standalone="no"?>
<!DOCTYPE svg PUBLIC "-//W3C//DTD SVG 20010904//EN"
 "http://www.w3.org/TR/2001/REC-SVG-20010904/DTD/svg10.dtd">
<svg version="1.0" xmlns="http://www.w3.org/2000/svg"
 width="2000.000000pt" height="2000.000000pt" viewBox="0 0 2000.000000 2000.000000"
 preserveAspectRatio="xMidYMid meet">

<g transform="translate(0.000000,2000.000000) scale(0.100000,-0.100000)"
fill="#000000" stroke="none">
<path d="M9465 17684 c-412 -29 -598 -49 -888 -99 -959 -164 -1854 -513 -2695
-1053 -824 -528 -1555 -1248 -2114 -2083 -400 -597 -749 -1345 -932 -1999
-139 -499 -215 -913 -263 -1430 -14 -150 -18 -288 -17 -600 0 -421 10 -587 54
-930 245 -1890 1225 -3606 2730 -4784 1034 -809 2243 -1318 3530 -1486 414
-54 934 -74 1340 -51 784 43 1530 205 2245 486 1612 634 2927 1797 3757 3320
393 720 671 1553 792 2373 63 426 80 706 73 1197 -9 604 -63 1036 -197 1592
-271 1117 -798 2141 -1561 3033 -157 183 -530 559 -714 719 -1103 962 -2428
1560 -3870 1746 -287 37 -455 47 -835 50 -212 1 -407 1 -435 -1z m700 -124
c1652 -86 3192 -719 4410 -1812 171 -154 484 -470 628 -635 731 -839 1264
-1854 1537 -2930 479 -1886 168 -3885 -863 -5533 -409 -655 -905 -1219 -1517
-1729 -597 -498 -1298 -905 -2035 -1181 -1371 -513 -2833 -596 -4256 -240
-716 179 -1460 500 -2079 898 -971 623 -1765 1448 -2345 2437 -117 199 -316
592 -398 786 -320 760 -497 1501 -558 2334 -14 203 -14 720 0 935 97 1408 577
2700 1421 3825 591 788 1358 1458 2225 1945 1158 651 2511 969 3830 900z"/>
<path d="M8437 16646 c-229 -57 -419 -105 -422 -107 -2 -3 9 -61 26 -129 47
-197 440 -1813 445 -1832 3 -10 12 -18 20 -18 20 0 865 208 872 215 8 8 -88
395 -98 395 -5 0 -80 -18 -167 -39 -87 -21 -169 -40 -182 -42 -24 -4 -26 1
-76 211 l-52 215 158 40 c86 22 160 42 163 45 4 5 -80 369 -88 377 -2 2 -66
-12 -143 -31 -76 -19 -150 -36 -163 -38 -22 -3 -25 4 -66 172 -23 96 -39 178
-36 181 4 4 78 24 165 45 87 21 163 41 168 45 12 7 -82 392 -96 395 -6 1 -198
-44 -428 -100z"/>
<path d="M10837 15823 c-191 -500 -356 -931 -367 -960 l-19 -51 248 -61 c137
-34 253 -61 258 -61 5 0 33 77 62 170 30 94 57 170 60 170 3 -1 44 -11 91 -24
71 -19 85 -26 83 -42 -2 -10 -14 -88 -28 -173 -17 -100 -22 -156 -16 -160 20
-13 491 -124 497 -118 6 5 214 1973 214 2023 0 18 -32 28 -357 107 -197 48
-363 87 -369 87 -5 0 -166 -408 -357 -907z m566 -19 c-36 -252 -67 -460 -68
-462 -4 -5 -175 43 -173 49 2 3 70 202 152 442 82 240 151 436 153 434 1 -2
-27 -210 -64 -463z"/>
<path d="M13851 15366 c-72 -80 -131 -148 -131 -153 0 -4 50 -52 110 -107 61
-54 110 -100 110 -103 0 -3 -243 -274 -540 -604 -297 -329 -540 -602 -540
-606 0 -10 379 -349 386 -346 3 1 239 262 525 580 287 318 531 588 543 600
l21 23 116 -105 117 -104 135 151 c112 126 134 155 124 167 -22 27 -829 751
-837 751 -4 0 -66 -65 -139 -144z"/>
<path d="M6020 15443 c-51 -11 -147 -61 -205 -108 -33 -27 -181 -154 -330
-284 -148 -129 -272 -236 -274 -237 -3 -3 45 -59 838 -966 l503 -577 267 232
c146 127 298 263 336 302 183 185 199 367 49 563 -83 110 -271 310 -318 340
-112 72 -222 79 -343 22 -37 -17 -77 -39 -88 -48 -10 -9 2 8 29 38 56 63 106
161 106 207 0 61 -39 139 -112 225 -127 149 -228 246 -281 268 -51 22 -132 33
-177 23z m-52 -484 c19 -7 64 -47 113 -102 102 -114 119 -142 119 -191 0 -32
-7 -45 -41 -79 -48 -48 -22 -67 -213 153 l-135 155 21 22 c21 22 74 52 94 53
6 0 25 -5 42 -11z m529 -592 c27 -15 270 -292 290 -331 9 -18 13 -41 8 -62 -6
-35 -67 -109 -84 -102 -5 1 -95 101 -200 222 l-190 218 27 23 c57 47 104 57
149 32z"/>
<path d="M9775 13734 c-484 -50 -926 -222 -1303 -507 -129 -99 -331 -293 -428
-414 -282 -350 -453 -731 -536 -1194 -21 -120 -22 -151 -25 -899 -5 -868 -8
-829 68 -893 34 -30 95 -57 127 -57 8 0 12 249 15 858 3 941 1 902 68 1166 40
161 86 283 171 456 329 668 969 1137 1713 1255 158 25 453 30 622 11 530 -62
1015 -302 1389 -688 373 -385 592 -857 644 -1387 6 -60 10 -429 10 -887 0
-431 4 -784 8 -784 5 0 31 7 60 15 58 18 115 75 133 135 7 23 9 283 6 795 -4
797 -4 811 -52 1034 -135 639 -531 1215 -1088 1582 -300 198 -625 322 -1014
385 -94 15 -495 27 -588 18z"/>
<path d="M4444 13224 c-26 -55 -68 -146 -95 -203 -27 -58 -46 -108 -42 -112 5
-4 170 -83 368 -175 730 -338 808 -375 815 -379 4 -3 51 89 104 203 75 159 94
209 84 215 -21 13 -1151 538 -1171 544 -14 4 -26 -14 -63 -93z"/>
<path d="M9700 13290 c-378 -58 -719 -206 -1013 -441 -90 -72 -89 -78 10 -105
97 -26 171 -11 277 56 118 74 309 165 431 205 230 74 414 100 658 92 331 -11
617 -96 917 -272 161 -95 224 -111 326 -80 93 27 94 33 17 94 -392 313 -848
472 -1343 470 -102 -1 -209 -8 -280 -19z"/>
<path d="M14909 13037 l-605 -262 90 -211 91 -211 75 32 c41 18 314 135 605
260 292 126 532 229 533 231 4 3 -168 405 -177 415 -3 4 -278 -111 -612 -254z"/>
<path d="M4291 11204 c-213 -57 -380 -226 -436 -439 -19 -76 -19 -224 0 -300
71 -272 308 -455 590 -455 162 0 314 62 423 173 73 73 83 87 122 166 81 163
80 376 -3 539 -79 156 -224 273 -395 317 -71 19 -230 18 -301 -1z"/>
<path d="M15123 11205 c-150 -27 -300 -126 -389 -256 -70 -104 -95 -179 -101
-309 -6 -127 10 -207 63 -312 46 -91 162 -209 251 -256 132 -69 295 -89 437
-52 112 28 190 73 277 160 123 121 179 255 179 427 0 147 -43 269 -135 386
-81 102 -217 183 -357 211 -90 19 -127 19 -225 1z"/>
<path d="M8474 10717 c-52 -21 -91 -56 -113 -100 -21 -43 -21 -52 -21 -904 l0
-860 23 -42 c12 -24 42 -57 66 -75 l43 -31 238 0 238 0 43 31 c24 18 54 51 66
75 l23 42 0 862 0 862 -23 42 c-12 24 -42 57 -65 75 l-44 31 -221 2 c-154 1
-231 -2 -253 -10z"/>
<path d="M11029 10707 c-24 -13 -57 -43 -74 -66 l-30 -43 -3 -872 -2 -872 23
-45 c13 -24 43 -57 66 -74 l43 -30 220 -3 c160 -2 230 0 252 9 53 22 93 58
115 104 21 44 21 54 21 900 0 846 0 856 -21 900 -23 48 -65 85 -118 103 -22 8
-109 12 -241 12 -197 0 -209 -1 -251 -23z"/>
<path d="M8075 10264 c-46 -24 -104 -84 -133 -139 l-27 -50 0 -360 0 -360 27
-50 c36 -70 132 -155 174 -155 2 0 4 254 4 565 0 311 -3 565 -7 565 -5 0 -21
-7 -38 -16z"/>
<path d="M11880 9715 c0 -311 2 -565 4 -565 42 0 138 85 174 155 l27 50 0 360
0 360 -27 50 c-36 70 -132 155 -174 155 -2 0 -4 -254 -4 -565z"/>
<path d="M6895 9223 c-47 -24 -96 -74 -116 -118 -24 -52 -24 -138 0 -190 35
-74 286 -304 538 -493 662 -495 1439 -792 2278 -873 167 -16 656 -16 805 0
283 30 447 58 705 122 555 138 1092 391 1556 735 274 203 547 458 567 530 25
87 9 165 -46 226 -48 53 -102 78 -172 78 -81 0 -126 -26 -252 -146 -489 -464
-1128 -813 -1781 -973 -307 -75 -559 -109 -872 -118 -873 -24 -1708 226 -2415
722 -151 106 -273 206 -432 352 -76 70 -155 136 -176 145 -47 22 -146 23 -187
1z"/>
<path d="M4135 8744 c-152 -78 -280 -236 -324 -402 -65 -238 -2 -480 169 -653
63 -63 185 -149 213 -149 4 0 7 12 7 28 0 22 -8 31 -47 52 -73 38 -192 163
-235 245 -55 107 -72 174 -72 295 0 89 4 118 28 188 46 135 143 257 274 342
37 25 52 41 52 57 0 29 -3 28 -65 -3z"/>
<path d="M14901 8740 c-159 -88 -283 -255 -325 -437 -66 -294 79 -604 346
-739 26 -13 50 -24 53 -24 15 0 -2 56 -20 65 -157 82 -281 241 -321 412 -23
100 -15 246 18 341 49 138 148 258 273 334 40 24 55 39 55 56 0 29 -14 28 -79
-8z"/>
<path d="M4029 8733 c-13 -16 -12 -17 4 -4 16 13 21 21 13 21 -2 0 -10 -8 -17
-17z"/>
<path d="M4750 8727 c0 -17 16 -35 60 -65 74 -52 156 -151 197 -235 91 -185
81 -411 -24 -585 -43 -70 -126 -159 -190 -204 -31 -21 -43 -36 -43 -53 0 -30
5 -31 50 -4 197 118 312 307 327 536 16 240 -99 466 -304 602 -55 37 -73 39
-73 8z"/>
<path d="M15530 8726 c0 -17 14 -34 48 -59 256 -190 337 -504 202 -783 -32
-67 -59 -104 -114 -158 -39 -40 -86 -81 -103 -91 -25 -14 -33 -26 -33 -47 0
-33 11 -31 88 20 108 70 213 214 255 347 90 283 -16 585 -265 756 -66 45 -78
48 -78 15z"/>
<path d="M15640 8746 c0 -2 8 -10 18 -17 15 -13 16 -12 3 4 -13 16 -21 21 -21
13z"/>
<path d="M4905 8710 c10 -11 20 -20 23 -20 3 0 -3 9 -13 20 -10 11 -20 20 -23
20 -3 0 3 -9 13 -20z"/>
<path d="M3945 8658 l-60 -63 63 60 c58 55 67 65 59 65 -1 0 -29 -28 -62 -62z"/>
<path d="M15740 8655 c85 -94 86 -95 62 -60 -11 17 -44 53 -73 80 -49 46 -49
45 11 -20z"/>
<path d="M14724 8668 c-56 -63 -77 -88 -72 -88 3 0 28 27 57 60 55 63 66 83
15 28z"/>
<path d="M4979 8643 c24 -29 46 -53 48 -53 7 0 -54 75 -74 91 -10 8 2 -10 26
-38z"/>
<path d="M3862 8563 c-26 -38 -34 -53 -29 -53 2 0 16 18 31 40 29 45 28 56 -2
13z"/>
<path d="M5050 8553 c11 -18 37 -65 56 -105 19 -40 32 -62 28 -48 -10 39 -59
132 -84 160 l-22 25 22 -32z"/>
<path d="M15845 8515 c16 -26 38 -72 51 -103 13 -32 24 -50 24 -41 0 21 -75
175 -90 184 -7 4 0 -14 15 -40z"/>
<path d="M14605 8510 c-9 -16 -13 -30 -11 -30 3 0 12 14 21 30 9 17 13 30 11
30 -3 0 -12 -13 -21 -30z"/>
<path d="M3791 8431 c-11 -27 -21 -56 -21 -63 0 -7 11 14 25 46 13 33 23 61
21 63 -2 2 -13 -19 -25 -46z"/>
<path d="M14566 8435 c-9 -26 -7 -32 5 -12 6 10 9 21 6 23 -2 3 -7 -2 -11 -11z"/>
<path d="M5142 8360 c0 -8 4 -26 8 -40 6 -20 8 -21 8 -5 0 11 -3 29 -8 40 -5
12 -8 14 -8 5z"/>
<path d="M14535 8340 c-4 -17 -5 -34 -2 -36 2 -3 7 10 11 27 8 42 0 50 -9 9z"/>
<path d="M15928 8310 c4 -25 7 -105 7 -179 0 -97 2 -123 8 -95 11 51 3 262
-11 294 -9 21 -10 17 -4 -20z"/>
<path d="M3746 8283 c-7 -48 -6 -231 2 -261 4 -13 7 49 7 137 0 89 -1 161 -1
161 -1 0 -4 -17 -8 -37z"/>
<path d="M5162 8265 c0 -16 2 -22 5 -12 2 9 2 23 0 30 -3 6 -5 -1 -5 -18z"/>
<path d="M14522 8270 c0 -14 2 -19 5 -12 2 6 2 18 0 25 -3 6 -5 1 -5 -13z"/>
<path d="M14513 8160 c0 -36 2 -50 4 -32 2 17 2 47 0 65 -2 17 -4 3 -4 -33z"/>
<path d="M5173 8155 c0 -33 2 -45 4 -27 2 18 2 45 0 60 -2 15 -4 0 -4 -33z"/>
<path d="M5162 8055 c0 -16 2 -22 5 -12 2 9 2 23 0 30 -3 6 -5 -1 -5 -18z"/>
<path d="M14521 8044 c0 -11 3 -14 6 -6 3 7 2 16 -1 19 -3 4 -6 -2 -5 -13z"/>
<path d="M5132 7937 c-30 -98 -82 -185 -162 -271 -60 -66 -61 -68 -11 -21 29
28 75 82 101 122 46 70 106 211 98 233 -2 6 -14 -23 -26 -63z"/>
<path d="M14532 7995 c0 -11 3 -29 8 -40 11 -25 11 1 0 35 -6 20 -8 21 -8 5z"/>
<path d="M15921 7974 c0 -11 3 -14 6 -6 3 7 2 16 -1 19 -3 4 -6 -2 -5 -13z"/>
<path d="M3771 7940 c0 -8 4 -22 9 -30 12 -18 12 -2 0 25 -6 13 -9 15 -9 5z"/>
<path d="M15901 7919 c-6 -18 -9 -34 -7 -36 2 -2 9 10 15 28 6 18 9 34 7 36
-2 2 -9 -10 -15 -28z"/>
<path d="M14555 7910 c9 -31 54 -120 60 -120 4 0 -54 131 -63 140 -2 3 -1 -6
3 -20z"/>
<path d="M3800 7866 c0 -11 40 -86 45 -86 3 0 -4 19 -16 43 -23 45 -29 54 -29
43z"/>
<path d="M15860 7823 c-13 -25 -40 -66 -59 -92 -22 -29 -26 -39 -12 -26 25 21
106 153 100 160 -3 2 -16 -17 -29 -42z"/>
<path d="M14630 7761 c7 -13 44 -56 84 -96 l71 -72 -60 66 c-34 36 -71 80 -83
96 -17 22 -20 24 -12 6z"/>
<path d="M3861 7755 c13 -23 49 -67 49 -59 0 5 -13 23 -28 39 -15 17 -24 26
-21 20z"/>
<path d="M6324 6983 l-707 -737 59 -55 c33 -30 178 -169 323 -308 243 -234
270 -256 349 -296 75 -37 95 -42 166 -45 70 -3 89 0 140 22 32 14 75 40 95 58
100 87 887 921 931 986 57 84 80 151 80 233 0 141 -62 235 -318 487 -108 107
-245 238 -304 293 l-106 100 -708 -738z m936 2 c0 -19 -6 -51 -14 -69 -17 -41
-764 -824 -809 -848 -18 -9 -49 -17 -70 -18 -32 0 -46 7 -83 43 l-44 42 468
487 467 488 43 -44 c33 -36 42 -52 42 -81z"/>
<path d="M3920 7677 c0 -2 15 -16 33 -33 l32 -29 -29 33 c-28 30 -36 37 -36
29z"/>
<path d="M15734 7648 l-29 -33 33 29 c30 28 37 36 29 36 -2 0 -16 -15 -33 -32z"/>
<path d="M4004 7602 c8 -13 66 -56 66 -49 0 3 -17 17 -37 33 -20 15 -33 23
-29 16z"/>
<path d="M15655 7584 c-18 -16 -22 -22 -9 -15 18 9 53 42 43 41 -2 -1 -17 -12
-34 -26z"/>
<path d="M12931 7559 c-30 -4 -87 -24 -129 -45 -66 -32 -105 -65 -306 -260
-127 -122 -257 -249 -289 -281 l-58 -59 592 -605 c325 -332 647 -660 715 -729
l124 -125 179 179 180 180 -289 296 -288 296 117 119 c137 140 177 208 187
316 14 146 -41 242 -271 475 -142 144 -181 177 -236 203 -75 37 -150 50 -228
40z m30 -448 c51 -40 245 -243 258 -270 20 -42 7 -76 -49 -135 l-49 -51 -181
180 c-99 99 -180 185 -180 191 0 6 25 32 56 58 63 52 104 59 145 27z"/>
<path d="M14847 7549 c7 -7 15 -10 18 -7 3 3 -2 9 -12 12 -14 6 -15 5 -6 -5z"/>
<path d="M8376 5948 c-321 -1259 -353 -1388 -347 -1392 11 -7 483 -128 486
-124 2 2 51 192 110 423 137 542 118 489 168 482 55 -8 89 -36 106 -88 15 -43
14 -49 -88 -452 -57 -224 -101 -410 -98 -413 10 -11 462 -123 468 -116 4 4 49
169 100 367 83 321 93 370 94 450 0 70 -4 99 -19 129 -27 53 -83 105 -155 141
l-59 30 77 1 c130 2 208 52 262 169 15 33 45 125 65 205 61 236 52 342 -39
446 -41 46 -125 94 -230 130 -73 25 -717 194 -740 194 -8 0 -66 -211 -161
-582z m655 111 c38 -19 69 -69 69 -111 0 -41 -58 -241 -78 -267 -25 -34 -83
-50 -141 -39 -24 4 -46 10 -48 12 -4 3 14 74 98 399 9 34 12 37 37 31 15 -4
43 -15 63 -25z"/>
<path d="M11060 6465 c-262 -44 -458 -161 -535 -318 -62 -127 -67 -243 -20
-442 38 -158 251 -935 273 -992 56 -147 160 -271 268 -319 125 -55 285 -55
478 1 347 100 503 312 456 619 -11 72 -246 955 -285 1071 -54 158 -159 291
-273 343 -114 53 -211 63 -362 37z m62 -375 c14 -10 30 -32 37 -47 22 -56 331
-1207 331 -1236 0 -41 -48 -87 -93 -87 -56 0 -83 30 -111 123 -58 191 -316
1158 -316 1182 0 16 12 38 29 56 35 35 86 39 123 9z"/>
</g>
</svg>
